<svg width="240" height="231" viewBox="0 0 240 231" fill="none" xmlns="http://www.w3.org/2000/svg">
<g clip-path="url(#clip0_1022_8660)">
<mask id="mask0_1022_8660" style="mask-type:luminance" maskUnits="userSpaceOnUse" x="0" y="77" width="232" height="83">
<path d="M212.082 84.6612C201.589 77.9709 171.901 66.6069 122.587 105.438C121.99 105.89 120.183 107.513 119.162 108.423L130.124 117.021C128.038 115.419 126.102 113.912 124.417 112.602C123.101 111.575 121.937 110.644 120.871 109.828C120.576 109.588 120.002 109.115 119.162 108.416C115.118 105.191 104.927 97.5031 91.4323 90.6235C77.915 83.7439 61.0715 77.6797 43.6835 77.6797C22.901 77.6797 7.26691 87.9008 1.89174 105.009C-3.68755 122.685 3.38106 142.057 19.053 152.161C29.5689 158.946 61.3436 170.915 110.529 130.045L111.376 129.462L101.903 118.229L99.2947 120.464C69.9545 143.607 43.7288 150.8 27.3387 140.244C17.2159 133.75 12.506 120.683 16.1272 109.195C17.8358 103.728 21.2151 99.4469 25.925 96.5131C30.6349 93.6011 36.6375 92.0213 43.6835 92.0213C77.2194 92.0213 110.801 120.399 111.126 120.683L111.421 120.923C112.51 121.76 113.704 122.692 115.042 123.718C131.039 136.233 160.705 159.449 186.9 159.427H187.573C208.484 159.114 224.11 148.609 229.372 131.29C234.702 113.73 227.588 94.5547 212.082 84.6612ZM215.084 127.271C211.712 138.38 201.589 144.874 187.354 145.093H186.908C168.877 145.093 145.562 128.8 130.797 117.552C160.115 94.4528 187.528 86.19 203.872 96.6077C213.844 102.963 218.554 115.856 215.084 127.278V127.271Z" fill="white"/>
</mask>
<g mask="url(#mask0_1022_8660)">
<path d="M215.509 125.662C215.388 126.201 215.244 126.732 215.078 127.264C211.706 138.373 201.591 144.867 187.348 145.085H186.902C168.871 145.085 145.556 128.793 130.799 117.545C160.116 94.4455 187.521 86.1827 203.866 96.6004C209.718 100.321 213.755 106.297 215.388 112.908L222.63 104.608L230.22 110.942C227.99 100.357 221.625 90.74 212.076 84.6539C203.307 79.0556 181.088 70.1883 145.185 90.1795C138.177 94.0815 130.64 99.0902 122.589 105.431C121.991 105.89 120.177 107.513 119.164 108.423L126.868 114.466L130.126 117.021C128.039 115.419 126.104 113.912 124.418 112.602C123.103 111.575 121.938 110.644 120.872 109.828C120.699 109.683 120.419 109.457 120.048 109.151L119.995 109.107L119.806 108.955C119.617 108.794 119.406 108.62 119.164 108.423C118.234 107.688 116.987 106.712 115.452 105.569L115.376 105.511C112.972 103.728 109.873 101.529 106.198 99.1557C101.965 96.4184 96.9828 93.4482 91.4338 90.6235C88.4476 89.1093 85.3026 87.6242 82.0215 86.2483C70.4475 81.3634 57.2326 77.6797 43.6851 77.6797C37.6975 77.6797 32.1409 78.5242 27.1362 80.1403L38.4687 85.1635L34.5752 93.0041C37.3649 92.3489 40.4116 92.0067 43.6851 92.0067C63.0462 92.0067 82.4222 101.463 95.4103 109.515C104.913 115.412 110.992 120.552 111.128 120.675L111.422 120.916C112.511 121.746 113.706 122.677 115.044 123.704C121.364 128.654 129.823 135.272 139.357 141.467C153.947 150.946 171.056 159.434 186.902 159.42H187.574C208.485 159.107 224.112 148.594 229.366 131.282C230.069 128.96 230.561 126.616 230.833 124.264L215.509 125.662ZM109.381 127.082C108.565 126.106 107.801 125.218 107.113 124.395C106.977 124.235 106.841 124.075 106.705 123.915C106.644 123.828 106.576 123.748 106.508 123.667C106.478 123.631 106.44 123.587 106.403 123.544C106.365 123.5 106.319 123.456 106.274 123.398C106.229 123.347 106.176 123.289 106.123 123.231L101.904 118.222L99.2962 120.457C69.9485 143.607 43.7304 150.793 27.3328 140.237C17.2175 133.743 12.5 120.675 16.1213 109.188C17.2704 105.526 19.1528 102.41 21.693 99.8619L16.0684 85.5712C9.37019 90.2231 4.45619 96.8261 1.88579 105.002C-3.6935 122.677 3.37511 142.05 19.0546 152.154C27.7108 157.738 50.7839 166.838 86.1115 147.065C93.6942 142.828 101.844 137.259 110.53 130.038L111.347 129.477L111.377 129.455C110.674 128.618 110.009 127.824 109.381 127.082Z" fill="#B0D236"/>
<path style="mix-blend-mode:multiply" d="M131.516 118.106L121.892 110.601L118.551 107.943L143.121 59.7422L192.518 98.2027L131.516 118.106Z" fill="url(#paint0_radial_1022_8660)"/>
<path style="mix-blend-mode:multiply" d="M49.1824 54.0898L45.6821 98.2068L95.1999 111.871L100.424 113.851L135.102 159.424L184.181 141.297L125.931 113.757L49.1824 54.0898Z" fill="url(#paint1_linear_1022_8660)"/>
<path style="mix-blend-mode:multiply" d="M102.591 117.016L112.215 124.521L115.556 127.179L98.0096 161.62L58.5542 133.549L102.591 117.016Z" fill="url(#paint2_radial_1022_8660)"/>
</g>
<mask id="mask1_1022_8660" style="mask-type:luminance" maskUnits="userSpaceOnUse" x="73" y="7" width="86" height="223">
<path d="M127.493 113.717C137.563 102.476 144.541 92.1823 149.243 82.8857C164.341 52.9868 155.836 33.3526 150.468 25.6285C139.975 10.5298 119.858 3.72293 101.502 9.10288C83.7436 14.2862 73.1221 29.334 73.1221 49.3468C73.1221 66.0908 79.4193 82.3106 86.5635 95.3273C93.7077 108.322 101.691 118.136 105.04 122.03C105.758 122.846 106.257 123.392 106.507 123.676C107.353 124.702 108.321 125.823 109.387 127.09C110.748 128.713 112.313 130.577 113.976 132.586L105.048 122.03C104.103 123.013 102.417 124.753 101.948 125.328C61.6157 172.816 73.4245 201.404 80.3718 211.509C90.6383 226.44 110.559 233.291 128.794 228.158C146.779 223.091 157.688 208.044 158.013 187.907V187.259C158.036 162.034 133.927 133.467 120.931 118.063C119.865 116.774 118.898 115.624 118.028 114.576L117.779 114.292C117.484 113.979 88.015 81.6409 88.015 49.3468C88.015 42.5618 89.6555 36.7815 92.6795 32.246C95.7338 27.7106 100.171 24.4564 105.849 22.8111C117.779 19.324 131.349 23.8595 138.092 33.6074C147.58 47.2647 143.271 68.0054 126.374 91.6436C123.736 95.3273 120.795 99.091 117.559 102.898L115.397 105.527L126.881 114.474L127.501 113.717H127.493ZM92.7702 203.603C81.9519 187.863 90.54 161.466 114.52 133.234C126.201 147.445 143.12 169.896 143.12 187.266V187.696C142.893 201.404 136.15 211.152 124.613 214.399C112.759 217.741 99.3626 213.205 92.7627 203.603H92.7702Z" fill="white"/>
</mask>
<g mask="url(#mask1_1022_8660)">
<path d="M150.459 25.6279C140.722 11.6211 122.692 4.7488 105.477 8.12672L113.672 21.653C123.281 21.5147 132.784 25.9555 138.076 33.6067C147.564 47.264 143.255 68.0048 126.358 91.6429C123.727 95.3338 120.786 99.0903 117.543 102.898L115.373 105.526L115.449 105.584L119.804 108.969L119.993 109.122L120.046 109.166L126.865 114.48L127.485 113.723C134.984 105.351 140.775 97.496 145.183 90.1942C146.695 87.6971 148.04 85.2583 149.235 82.885C164.332 52.9861 155.827 33.3519 150.459 25.6279ZM139.354 141.482C132.92 132.302 126.048 124.155 120.915 118.069C119.849 116.781 118.881 115.63 118.012 114.582L117.762 114.291C117.641 114.16 112.304 108.314 106.196 99.1704C97.8266 86.6706 87.9986 67.9975 87.9986 49.3461C87.9986 42.5612 89.6316 36.7808 92.6632 32.2454C94.6136 29.3407 97.1387 26.9601 100.2 25.1911L89.7374 22.4611L92.6102 12.8442C80.2496 19.8694 73.1133 32.937 73.1133 49.3461C73.1133 62.3919 76.9383 75.1245 82.0187 86.263C83.4475 89.4225 84.9897 92.451 86.5622 95.3266C89.488 100.656 92.5649 105.46 95.4074 109.53C97.8191 112.995 100.057 115.936 101.901 118.237C103.164 119.817 104.23 121.098 105.039 122.03C105.485 122.539 105.848 122.947 106.12 123.245C106.173 123.304 106.226 123.362 106.271 123.413C106.317 123.471 106.362 123.515 106.4 123.558C106.437 123.602 106.475 123.646 106.506 123.682C106.574 123.762 106.642 123.842 106.702 123.93C106.838 124.09 106.974 124.25 107.11 124.41C107.798 125.233 108.562 126.121 109.378 127.097C110.006 127.839 110.671 128.633 111.374 129.47C112.191 130.453 113.068 131.501 113.967 132.593L111.344 129.492L105.039 122.03C104.094 123.012 102.408 124.752 101.939 125.327C95.3545 133.081 90.1532 140.332 86.1086 147.08C75.2376 165.164 72.5765 179.651 73.3476 190.556L80.7788 181.777L88.1498 187.739C88.0969 172.655 97.373 153.414 114.512 133.234C126.199 147.444 143.111 169.903 143.111 187.266V187.695C142.892 201.404 136.141 211.151 124.612 214.398C112.75 217.74 99.3613 213.204 92.7614 203.602C92.2096 202.794 91.703 201.964 91.257 201.098L75.8799 202.728C77.2332 206.47 78.9039 209.39 80.3555 211.508C90.6295 226.439 110.543 233.29 128.777 228.158C146.763 223.091 157.672 208.043 157.997 187.906V187.266C158.012 172.007 149.197 155.532 139.354 141.482Z" fill="url(#paint3_linear_1022_8660)"/>
<path style="mix-blend-mode:multiply" d="M104.617 121.539L110.612 128.572L115.42 134.337L96.8906 166.661L73.8252 157.67L104.617 121.539Z" fill="url(#paint4_radial_1022_8660)"/>
<path style="mix-blend-mode:multiply" d="M123.404 118.519L117.409 111.48L112.608 105.721L131.138 73.3906L154.196 82.3887L123.404 118.519Z" fill="url(#paint5_radial_1022_8660)"/>
</g>
<path d="M222.612 110.59L208.785 127.647L238.791 124.422L222.612 110.59Z" fill="#B0D236"/>
<path d="M95.3784 19.9545L117.265 24.8612L101.608 0L95.3784 19.9545Z" fill="url(#paint6_linear_1022_8660)"/>
<path d="M80.8577 187.719L67.3027 204.98L97.2553 201.318L80.8577 187.719Z" fill="url(#paint7_linear_1022_8660)"/>
<path d="M32.4776 86.7234L11.7329 78.4023L22.9066 105.411L32.4776 86.7234Z" fill="#B0D236"/>
</g>
<defs>
<radialGradient id="paint0_radial_1022_8660" cx="0" cy="0" r="1" gradientUnits="userSpaceOnUse" gradientTransform="translate(106.062 134.523) scale(53.6609 51.6735)">
<stop stop-color="#231F20" stop-opacity="0.95"/>
<stop offset="0.34" stop-color="#231F20" stop-opacity="0.82"/>
<stop offset="0.72" stop-color="#231F20" stop-opacity="0.43"/>
<stop offset="1" stop-color="#231F20" stop-opacity="0"/>
</radialGradient>
<linearGradient id="paint1_linear_1022_8660" x1="79.3163" y1="82.6712" x2="116.73" y2="124.673" gradientUnits="userSpaceOnUse">
<stop stop-color="#231F20" stop-opacity="0"/>
<stop offset="0.54" stop-color="#231F20" stop-opacity="0.4"/>
<stop offset="0.79" stop-color="#231F20" stop-opacity="0.27"/>
<stop offset="1" stop-color="#231F20" stop-opacity="0"/>
</linearGradient>
<radialGradient id="paint2_radial_1022_8660" cx="0" cy="0" r="1" gradientUnits="userSpaceOnUse" gradientTransform="translate(117.371 111.315) rotate(180) scale(41.3532 39.8216)">
<stop stop-color="#231F20" stop-opacity="0.95"/>
<stop offset="0.34" stop-color="#231F20" stop-opacity="0.82"/>
<stop offset="0.72" stop-color="#231F20" stop-opacity="0.43"/>
<stop offset="1" stop-color="#231F20" stop-opacity="0"/>
</radialGradient>
<linearGradient id="paint3_linear_1022_8660" x1="115.555" y1="-72.1499" x2="115.555" y2="163.271" gradientUnits="userSpaceOnUse">
<stop stop-color="#37C6F4"/>
<stop offset="1" stop-color="#3059A6"/>
</linearGradient>
<radialGradient id="paint4_radial_1022_8660" cx="0" cy="0" r="1" gradientUnits="userSpaceOnUse" gradientTransform="translate(136.361 100.747) scale(57.8567 55.7139)">
<stop stop-color="#231F20" stop-opacity="0.95"/>
<stop offset="0.34" stop-color="#231F20" stop-opacity="0.82"/>
<stop offset="0.72" stop-color="#231F20" stop-opacity="0.43"/>
<stop offset="1" stop-color="#231F20" stop-opacity="0"/>
</radialGradient>
<radialGradient id="paint5_radial_1022_8660" cx="0" cy="0" r="1" gradientUnits="userSpaceOnUse" gradientTransform="translate(91.6596 139.311) rotate(180) scale(57.8567 55.7139)">
<stop stop-color="#231F20" stop-opacity="0.95"/>
<stop offset="0.34" stop-color="#231F20" stop-opacity="0.82"/>
<stop offset="0.72" stop-color="#231F20" stop-opacity="0.43"/>
<stop offset="1" stop-color="#231F20" stop-opacity="0"/>
</radialGradient>
<linearGradient id="paint6_linear_1022_8660" x1="106.318" y1="-72.1594" x2="106.318" y2="163.261" gradientUnits="userSpaceOnUse">
<stop stop-color="#37C6F4"/>
<stop offset="1" stop-color="#3059A6"/>
</linearGradient>
<linearGradient id="paint7_linear_1022_8660" x1="-214.191" y1="125.841" x2="21.6427" y2="188.038" gradientUnits="userSpaceOnUse">
<stop stop-color="#37C6F4"/>
<stop offset="1" stop-color="#3059A6"/>
</linearGradient>
<clipPath id="clip0_1022_8660">
<rect width="240" height="230.769" fill="white"/>
</clipPath>
</defs>
</svg>
